<svg width="7" height="14" viewBox="0 0 7 14" fill="none" xmlns="http://www.w3.org/2000/svg">
  <path d="M6.77298 7.39798L1.14798 13.023C1.09571 13.0752 1.03367 13.1167 0.965387 13.145C0.897103 13.1733 0.823917 13.1878 0.750008 13.1878C0.676098 13.1878 0.602912 13.1733 0.534628 13.145C0.466345 13.1167 0.404301 13.0752 0.352039 13.023C0.299777 12.9707 0.25832 12.9087 0.230036 12.8404C0.201752 12.7721 0.187195 12.6989 0.187195 12.625C0.187195 12.5511 0.201752 12.4779 0.230036 12.4096C0.25832 12.3413 0.299777 12.2793 0.352039 12.227L5.57977 7.00001L0.352039 1.77298C0.246491 1.66743 0.187195 1.52427 0.187195 1.37501C0.187195 1.22574 0.246491 1.08259 0.352039 0.977039C0.457586 0.871491 0.60074 0.812195 0.750008 0.812195C0.899275 0.812195 1.04243 0.871491 1.14798 0.977039L6.77298 6.60204C6.82528 6.65428 6.86677 6.71632 6.89507 6.7846C6.92338 6.85289 6.93795 6.92609 6.93795 7.00001C6.93795 7.07393 6.92338 7.14713 6.89507 7.21541C6.86677 7.2837 6.82528 7.34574 6.77298 7.39798Z" fill="white"/>
</svg>
