<svg xmlns="http://www.w3.org/2000/svg" width="18" height="18" viewBox="0 0 18 18" fill="none">
  <path d="M9.39792 5.22702L15.0229 10.852C15.0752 10.9043 15.1166 10.9663 15.1449 11.0346C15.1732 11.1029 15.1878 11.1761 15.1878 11.25C15.1878 11.3239 15.1732 11.3971 15.1449 11.4654C15.1166 11.5337 15.0752 11.5957 15.0229 11.648C14.9707 11.7002 14.9086 11.7417 14.8403 11.77C14.772 11.7982 14.6989 11.8128 14.6249 11.8128C14.551 11.8128 14.4779 11.7982 14.4096 11.77C14.3413 11.7417 14.2792 11.7002 14.227 11.648L8.99995 6.42023L3.77292 11.648C3.66737 11.7535 3.52421 11.8128 3.37495 11.8128C3.22568 11.8128 3.08253 11.7535 2.97698 11.648C2.87143 11.5424 2.81213 11.3993 2.81213 11.25C2.81213 11.1007 2.87143 10.9576 2.97698 10.852L8.60198 5.22702C8.65422 5.17472 8.71626 5.13323 8.78454 5.10493C8.85283 5.07662 8.92603 5.06205 8.99995 5.06205C9.07387 5.06205 9.14706 5.07662 9.21535 5.10493C9.28364 5.13323 9.34567 5.17472 9.39792 5.22702Z" fill="white"/>
</svg>